<?xml version="1.0" encoding="utf-8"?>
<svg width="40" height="40" viewBox="0 0 40 40" fill="none" xmlns="http://www.w3.org/2000/svg">
  <path d="M 20 0 C 8.981 0 0 8.98 0 19.999 C 0 31.018 8.981 39.998 20 39.998 C 31.019 39.998 40 31.018 40 19.999 C 40 8.98 31.019 0 20 0 Z M 20 3.077 C 24.019 3.077 27.692 4.471 30.587 6.807 C 29.115 8.615 26.413 11.125 21.885 12.769 C 19.423 8.317 17.365 5.471 15.933 3.586 C 17.231 3.269 18.596 3.077 20 3.077 Z M 12.885 4.663 C 14.087 6.211 16.26 9.125 18.846 13.682 C 12.202 15.422 6.202 15.538 3.702 15.461 C 5.038 10.653 8.423 6.721 12.885 4.663 Z M 32.798 8.942 C 35.356 11.913 36.923 15.769 36.923 19.999 C 36.923 20.634 36.885 21.249 36.817 21.864 C 36.26 21.787 35.846 21.72 35.135 21.662 C 32.75 21.48 29.596 21.48 26.183 21.989 C 25.288 19.672 24.308 17.528 23.298 15.519 C 28.048 13.701 31.058 11.019 32.798 8.942 Z M 20.308 16.47 C 21.279 18.374 22.221 20.413 23.096 22.605 C 19.048 23.807 15.365 26.547 12.538 29.095 C 11.029 30.441 9.788 31.729 8.865 32.739 C 5.317 29.633 3.067 25.095 3.067 20.009 C 3.067 19.499 3.106 19.018 3.144 18.528 C 5.337 18.615 12.346 18.682 20.308 16.47 Z M 30.49 24.643 C 32.856 24.557 34.721 24.72 36.202 24.883 C 35.086 28.643 32.692 31.845 29.529 33.998 C 29.019 30.835 28.231 27.797 27.279 24.932 C 28.385 24.787 29.471 24.691 30.49 24.643 Z M 24.202 25.489 C 25.298 28.652 26.163 32.027 26.654 35.566 C 24.606 36.431 22.365 36.921 19.99 36.921 C 16.827 36.921 13.894 36.046 11.365 34.556 C 12.221 33.643 13.279 32.537 14.587 31.374 C 17.308 28.931 20.856 26.441 24.202 25.489 Z" fill="#090909"/>
</svg>