<?xml version="1.0" encoding="utf-8"?>
<svg width="40" height="40" viewBox="0 0 40 40" fill="none" xmlns="http://www.w3.org/2000/svg">
  <path d="M 11.615 0.01 C 5.221 0.01 0 5.229 0 11.622 L 0 28.405 C 0 34.788 5.221 39.998 11.615 39.998 L 28.404 39.998 C 34.788 39.998 40 34.778 40 28.386 L 40 11.612 C 40 5.22 34.788 0 28.394 0 L 11.615 0 L 11.615 0.01 Z M 11.615 3.086 L 28.394 3.086 C 33.125 3.086 36.923 6.883 36.923 11.622 L 36.923 28.396 C 36.923 33.135 33.125 36.932 28.404 36.932 L 11.615 36.932 C 6.875 36.932 3.077 33.135 3.077 28.415 L 3.077 11.631 C 3.087 6.883 6.885 3.086 11.615 3.086 Z M 32.317 6.162 C 31.461 6.162 30.779 6.844 30.779 7.7 C 30.779 8.555 31.461 9.238 32.317 9.238 C 33.173 9.238 33.856 8.555 33.856 7.7 C 33.856 6.844 33.173 6.162 32.317 6.162 Z M 20.01 9.238 C 14.087 9.238 9.24 14.083 9.24 20.004 C 9.24 25.925 14.087 30.77 20.01 30.77 C 25.933 30.77 30.779 25.925 30.779 20.004 C 30.779 14.083 25.933 9.238 20.01 9.238 Z M 20.01 12.314 C 24.279 12.314 27.702 15.736 27.702 20.004 C 27.702 24.272 24.279 27.694 20.01 27.694 C 15.74 27.694 12.317 24.272 12.317 20.004 C 12.317 15.736 15.74 12.314 20.01 12.314 Z" fill="#090909"/>
</svg>